# xmcd
#
# Track frame offsets:
#	150
#	21172
#	38093
#	54086
#	75355
#	94132
#	116669
#	138130
#	156545
#	176249
#	201591
#	216094
#	251125
#
# Disc length: 3714 seconds
#
# Revision: 5
# Processed by: cddbd v1.5.2PL0 Copyright (c) Steve Scherf et al.
# Submitted via: audiograbber 1.81.03
#
DISCID=b30e800d
DTITLE=PASHALIDIS - EHOUN PERASEI HRONOI DEKA
DYEAR=2005
DGENRE=Blues
TTITLE0=PASHALIDIS - SOU TILEFONO
TTITLE1=PASHALIDIS - O TRELLOS
TTITLE2=PAVLAKOS - SAN TRAGOUDAKI
TTITLE3=PASHALIDIS - KAKES SYNITHIES
TTITLE4=THIVAIOS - AGGELOS ME TOUS AGGELOUS
TTITLE5=PSAHALIDIS, THIVAIOS - FOTIA MOU
TTITLE6=HAROULIS - TIS LITHIS TO PIGADI
TTITLE7=TSALIGOPOULOU - AMANES
TTITLE8=TSALIGOPOULOU - ELENI
TTITLE9=MITROPANOS - PETHAMENES KALISPERES
TTITLE10=PASHALIDIS - STA EIPA OLA
TTITLE11=PASHALIDIS - EROTOKRITOS
TTITLE12=PASHALIDIS - HRONOI DEKA
EXTD=
EXTT0=
EXTT1=
EXTT2=
EXTT3=
EXTT4=
EXTT5=
EXTT6=
EXTT7=
EXTT8=
EXTT9=
EXTT10=
EXTT11=
EXTT12=
PLAYORDER=
